<svg width="210" height="28" viewBox="0 0 210 28" fill="none" xmlns="http://www.w3.org/2000/svg">
<path d="M5.32528 0.818181V27H0.582386V0.818181H5.32528ZM32.6969 0.818181V27H28.4782L16.1415 9.16619H15.9242V27H11.1813V0.818181H15.4256L27.7495 18.6648H27.9796V0.818181H32.6969ZM52.8136 8.01562C52.6943 6.89915 52.1914 6.02983 51.3051 5.40767C50.4272 4.78551 49.2852 4.47443 47.8789 4.47443C46.8903 4.47443 46.0423 4.62358 45.3349 4.92188C44.6275 5.22017 44.0863 5.625 43.7113 6.13636C43.3363 6.64773 43.1445 7.23153 43.136 7.88778C43.136 8.43324 43.2596 8.90625 43.5068 9.30682C43.7624 9.70739 44.1076 10.0483 44.5423 10.3295C44.9769 10.6023 45.4585 10.8324 45.9869 11.0199C46.5153 11.2074 47.048 11.3651 47.5849 11.4929L50.0394 12.1065C51.0281 12.3366 51.9784 12.6477 52.8903 13.0398C53.8107 13.4318 54.6332 13.9261 55.3576 14.5227C56.0906 15.1193 56.6701 15.8395 57.0962 16.6832C57.5224 17.527 57.7355 18.5156 57.7355 19.6491C57.7355 21.1832 57.3434 22.5341 56.5593 23.7017C55.7752 24.8608 54.6417 25.7685 53.1587 26.4247C51.6843 27.0724 49.8988 27.3963 47.8022 27.3963C45.7653 27.3963 43.9968 27.081 42.4968 26.4503C41.0053 25.8196 39.8377 24.8991 38.994 23.6889C38.1587 22.4787 37.707 21.0043 37.6389 19.2656H42.3051C42.3732 20.1776 42.6545 20.9361 43.1488 21.5412C43.6431 22.1463 44.2866 22.598 45.0792 22.8963C45.8803 23.1946 46.7752 23.3438 47.7639 23.3438C48.7951 23.3438 49.6985 23.1903 50.4741 22.8835C51.2582 22.5682 51.8718 22.1335 52.315 21.5795C52.7582 21.017 52.984 20.3608 52.9926 19.6108C52.984 18.929 52.7837 18.3665 52.3917 17.9233C51.9997 17.4716 51.4499 17.0966 50.7426 16.7983C50.0437 16.4915 49.2255 16.2187 48.288 15.9801L45.3093 15.2131C43.1531 14.6591 41.4485 13.8196 40.1957 12.6946C38.9514 11.5611 38.3292 10.0568 38.3292 8.18182C38.3292 6.6392 38.7468 5.28835 39.582 4.12926C40.4258 2.97017 41.5721 2.07102 43.021 1.43182C44.4698 0.78409 46.1105 0.460226 47.9428 0.460226C49.8008 0.460226 51.4286 0.78409 52.8264 1.43182C54.2326 2.07102 55.3363 2.96165 56.1374 4.10369C56.9386 5.23721 57.3519 6.54119 57.3775 8.01562H52.8136ZM61.5332 4.79403V0.818181H82.4224V4.79403H74.3301V27H69.6256V4.79403H61.5332ZM87.3676 27H82.3051L91.5224 0.818181H97.3775L106.608 27H101.545L94.5522 6.1875H94.3477L87.3676 27ZM87.5338 16.7344H101.341V20.544H87.5338V16.7344ZM124.583 8.01562C124.464 6.89915 123.961 6.02983 123.074 5.40767C122.197 4.78551 121.055 4.47443 119.648 4.47443C118.66 4.47443 117.812 4.62358 117.104 4.92188C116.397 5.22017 115.856 5.625 115.481 6.13636C115.106 6.64773 114.914 7.23153 114.905 7.88778C114.905 8.43324 115.029 8.90625 115.276 9.30682C115.532 9.70739 115.877 10.0483 116.312 10.3295C116.746 10.6023 117.228 10.8324 117.756 11.0199C118.285 11.2074 118.817 11.3651 119.354 11.4929L121.809 12.1065C122.797 12.3366 123.748 12.6477 124.66 13.0398C125.58 13.4318 126.403 13.9261 127.127 14.5227C127.86 15.1193 128.439 15.8395 128.866 16.6832C129.292 17.527 129.505 18.5156 129.505 19.6491C129.505 21.1832 129.113 22.5341 128.329 23.7017C127.545 24.8608 126.411 25.7685 124.928 26.4247C123.454 27.0724 121.668 27.3963 119.572 27.3963C117.535 27.3963 115.766 27.081 114.266 26.4503C112.775 25.8196 111.607 24.8991 110.763 23.6889C109.928 22.4787 109.476 21.0043 109.408 19.2656H114.074C114.143 20.1776 114.424 20.9361 114.918 21.5412C115.412 22.1463 116.056 22.598 116.849 22.8963C117.65 23.1946 118.545 23.3438 119.533 23.3438C120.564 23.3438 121.468 23.1903 122.243 22.8835C123.028 22.5682 123.641 22.1335 124.084 21.5795C124.528 21.017 124.753 20.3608 124.762 19.6108C124.753 18.929 124.553 18.3665 124.161 17.9233C123.769 17.4716 123.219 17.0966 122.512 16.7983C121.813 16.4915 120.995 16.2187 120.057 15.9801L117.079 15.2131C114.922 14.6591 113.218 13.8196 111.965 12.6946C110.721 11.5611 110.099 10.0568 110.099 8.18182C110.099 6.6392 110.516 5.28835 111.351 4.12926C112.195 2.97017 113.341 2.07102 114.79 1.43182C116.239 0.78409 117.88 0.460226 119.712 0.460226C121.57 0.460226 123.198 0.78409 124.596 1.43182C126.002 2.07102 127.106 2.96165 127.907 4.10369C128.708 5.23721 129.121 6.54119 129.147 8.01562H124.583ZM134.453 27V0.818181H139.196V11.902H151.328V0.818181H156.084V27H151.328V15.8778H139.196V27H134.453ZM185.357 13.9091C185.357 16.7301 184.829 19.1463 183.772 21.1577C182.724 23.1605 181.292 24.6946 179.476 25.7599C177.67 26.8253 175.62 27.358 173.327 27.358C171.035 27.358 168.981 26.8253 167.165 25.7599C165.359 24.6861 163.927 23.1477 162.87 21.1449C161.822 19.1335 161.297 16.7216 161.297 13.9091C161.297 11.0881 161.822 8.67614 162.87 6.6733C163.927 4.66193 165.359 3.12358 167.165 2.05824C168.981 0.992897 171.035 0.460226 173.327 0.460226C175.62 0.460226 177.67 0.992897 179.476 2.05824C181.292 3.12358 182.724 4.66193 183.772 6.6733C184.829 8.67614 185.357 11.0881 185.357 13.9091ZM180.589 13.9091C180.589 11.9233 180.278 10.2486 179.655 8.88494C179.042 7.51278 178.189 6.47727 177.099 5.77841C176.008 5.07102 174.751 4.71733 173.327 4.71733C171.904 4.71733 170.647 5.07102 169.556 5.77841C168.465 6.47727 167.609 7.51278 166.986 8.88494C166.373 10.2486 166.066 11.9233 166.066 13.9091C166.066 15.8949 166.373 17.5739 166.986 18.946C167.609 20.3097 168.465 21.3452 169.556 22.0526C170.647 22.7514 171.904 23.1009 173.327 23.1009C174.751 23.1009 176.008 22.7514 177.099 22.0526C178.189 21.3452 179.042 20.3097 179.655 18.946C180.278 17.5739 180.589 15.8949 180.589 13.9091ZM190.561 27V0.818181H200.379C202.391 0.818181 204.078 1.19318 205.442 1.94318C206.814 2.69318 207.849 3.72443 208.548 5.03693C209.256 6.34091 209.609 7.82386 209.609 9.4858C209.609 11.1648 209.256 12.6562 208.548 13.9602C207.841 15.2642 206.797 16.2912 205.416 17.0412C204.036 17.7827 202.335 18.1534 200.315 18.1534H193.808V14.2543H199.676C200.852 14.2543 201.815 14.0497 202.565 13.6406C203.315 13.2315 203.869 12.669 204.227 11.9531C204.594 11.2372 204.777 10.4148 204.777 9.4858C204.777 8.55682 204.594 7.73864 204.227 7.03125C203.869 6.32386 203.311 5.77415 202.553 5.3821C201.803 4.98153 200.835 4.78125 199.651 4.78125H195.304V27H190.561Z" fill="white"/>
</svg>
